<svg xmlns="http://www.w3.org/2000/svg" viewBox="0 0 198.425 198.425"><path d="M142.072 127.34c1.05 1.517 2.102 3.033 3.158 4.545.316.452.341.74-.009 1.198-2.613 3.417-5.528 6.542-8.796 9.343-.409.35-.668.367-1.103.048-3.582-2.634-7.188-5.234-10.769-7.869-.449-.33-.752-.334-1.216-.028a39.987 39.987 0 0 1-11.258 5.128c-.525.147-.746.4-.841.922-.788 4.323-1.604 8.641-2.4 12.963-.236 1.283-.22 1.287-1.555 1.448-.391.047-.782.09-1.174.125-1.034.093-2.069.182-3.103.272h-5.423l-3-.309c-.758-4.738-1.51-9.397-2.235-14.061-.071-.458-.264-.598-.686-.692-4.23-.942-8.242-2.459-11.965-4.692-.526-.315-.878-.256-1.358.077-3.708 2.578-7.441 5.12-11.149 7.697-.443.308-.737.313-1.124-.052-2.272-2.145-4.588-4.245-6.826-6.424-.937-.913-1.72-1.985-2.571-2.981.184-.26.316-.449.452-.635 1.415-1.942 2.827-3.886 4.243-5.827m-.426-56.195c-1.213-1.767-2.426-3.534-3.644-5.296-.278-.402-.34-.679.025-1.066 1.875-1.987 3.673-4.05 5.608-5.976 1.337-1.33 2.852-2.481 4.279-3.704.332.236.558.396.783.558 3.648 2.624 7.297 5.245 10.94 7.875.318.23.554.362.972.117 3.173-1.859 6.561-3.212 10.114-4.147.421-.111.601-.283.678-.721.475-2.712.985-5.417 1.483-8.125l1.136-6.165c1.582-.162 3.1-.457 4.616-.443 2.961.027 5.922.198 8.88.364 1.611.091 1.222-.06 1.463 1.405.706 4.292 1.378 8.591 2.044 12.889.062.399.193.607.598.709 3.385.853 6.579 2.184 9.641 3.852.216.118.636.089.846-.048 1.301-.845 2.568-1.741 3.847-2.619l8.379-5.753c4.033 2.976 7.527 6.463 10.657 10.381l-4.173 5.727" fill="none" stroke="#00b8d4" stroke-width="4" stroke-miterlimit="10"/><g fill="none" stroke="#00838f" stroke-width="4" stroke-linecap="round" stroke-linejoin="round" stroke-miterlimit="10"><path d="M148.826 100.631c-1.03-3.893-.329-7.109 2.54-9.979 3.97-3.97 10.408-3.97 14.378 0 3.97 3.97 3.97 10.408 0 14.378-3.97 3.97-10.408 3.97-14.378 0M151.365 105.03l-7.071 7.071"/></g><path d="M168.858 119.779H29.567c-5.05 0-9.182-4.132-9.182-9.182V87.829c0-5.05 4.132-9.182 9.182-9.182h139.291c5.05 0 9.182 4.132 9.182 9.182v22.768c0 5.05-4.132 9.182-9.182 9.182z" fill="none" stroke="#00838f" stroke-width="4" stroke-linecap="round" stroke-linejoin="round" stroke-miterlimit="10"/></svg>